# Tiled2Unity generated file. Do not modify by hand.
# Wavefront file for 'level1_mesh_0018.obj'

# Vertices (Count = 64)
v -3168 -3104 0
v -3200 -3104 0
v -3200 -3072 0
v -3168 -3072 0
v -3136 -3104 0
v -3168 -3104 0
v -3168 -3072 0
v -3136 -3072 0
v -3168 -3072 0
v -3200 -3072 0
v -3200 -3040 0
v -3168 -3040 0
v -3136 -3072 0
v -3168 -3072 0
v -3168 -3040 0
v -3136 -3040 0
v -3104 -3072 0
v -3136 -3072 0
v -3136 -3040 0
v -3104 -3040 0
v -3072 -3072 0
v -3104 -3072 0
v -3104 -3040 0
v -3072 -3040 0
v -3168 -3040 0
v -3200 -3040 0
v -3200 -3008 0
v -3168 -3008 0
v -3136 -3040 0
v -3168 -3040 0
v -3168 -3008 0
v -3136 -3008 0
v -3104 -3040 0
v -3136 -3040 0
v -3136 -3008 0
v -3104 -3008 0
v -3072 -3040 0
v -3104 -3040 0
v -3104 -3008 0
v -3072 -3008 0
v -3168 -3008 0
v -3200 -3008 0
v -3200 -2976 0
v -3168 -2976 0
v -3136 -3008 0
v -3168 -3008 0
v -3168 -2976 0
v -3136 -2976 0
v -3104 -3008 0
v -3136 -3008 0
v -3136 -2976 0
v -3104 -2976 0
v -3072 -3008 0
v -3104 -3008 0
v -3104 -2976 0
v -3072 -2976 0
v -3104 -2976 0
v -3136 -2976 0
v -3136 -2944 0
v -3104 -2944 0
v -3072 -2976 0
v -3104 -2976 0
v -3104 -2944 0
v -3072 -2944 0

# Texture cooridinates (Count = 27)
vt 0.3125 0.25
vt 0.375 0.25
vt 0.375 0.3125
vt 0.3125 0.3125
vt 0.25 0.25
vt 0.25 0.3125
vt 0.375 0.375
vt 0.3125 0.375
vt 0.25 0.375
vt 0.3125 0
vt 0.375 0
vt 0.375 0.0625
vt 0.3125 0.0625
vt 0.25 0
vt 0.25 0.0625
vt 0.375 0.4375
vt 0.3125 0.4375
vt 0.25 0.4375
vt 0.375 0.125
vt 0.3125 0.125
vt 0.25 0.125
vt 0.375 0.5
vt 0.3125 0.5
vt 0.25 0.5
vt 0.375 0.1875
vt 0.3125 0.1875
vt 0.25 0.1875

# Normal
vn 0 0 -1

# Mesh description
g level1_mesh_0018

# Faces
f 1/1/1 2/2/1 3/3/1 4/4/1
f 5/5/1 6/1/1 7/4/1 8/6/1
f 9/4/1 10/3/1 11/7/1 12/8/1
f 13/6/1 14/4/1 15/8/1 16/9/1
f 17/10/1 18/11/1 19/12/1 20/13/1
f 21/14/1 22/10/1 23/13/1 24/15/1
f 25/8/1 26/7/1 27/16/1 28/17/1
f 29/9/1 30/8/1 31/17/1 32/18/1
f 33/13/1 34/12/1 35/19/1 36/20/1
f 37/15/1 38/13/1 39/20/1 40/21/1
f 41/17/1 42/16/1 43/22/1 44/23/1
f 45/18/1 46/17/1 47/23/1 48/24/1
f 49/20/1 50/19/1 51/25/1 52/26/1
f 53/21/1 54/20/1 55/26/1 56/27/1
f 57/26/1 58/25/1 59/2/1 60/1/1
f 61/27/1 62/26/1 63/1/1 64/5/1

