# Tiled2Unity generated file. Do not modify by hand.
# Wavefront file for 'level1_mesh_0010.obj'

# Vertices (Count = 124)
v -3168 -2656 0
v -3200 -2656 0
v -3200 -2624 0
v -3168 -2624 0
v -3136 -2656 0
v -3168 -2656 0
v -3168 -2624 0
v -3136 -2624 0
v -3040 -2656 0
v -3072 -2656 0
v -3072 -2624 0
v -3040 -2624 0
v -3008 -2656 0
v -3040 -2656 0
v -3040 -2624 0
v -3008 -2624 0
v -3168 -2624 0
v -3200 -2624 0
v -3200 -2592 0
v -3168 -2592 0
v -3136 -2624 0
v -3168 -2624 0
v -3168 -2592 0
v -3136 -2592 0
v -3104 -2624 0
v -3136 -2624 0
v -3136 -2592 0
v -3104 -2592 0
v -3072 -2624 0
v -3104 -2624 0
v -3104 -2592 0
v -3072 -2592 0
v -3040 -2624 0
v -3072 -2624 0
v -3072 -2592 0
v -3040 -2592 0
v -3008 -2624 0
v -3040 -2624 0
v -3040 -2592 0
v -3008 -2592 0
v -2944 -2624 0
v -2976 -2624 0
v -2976 -2592 0
v -2944 -2592 0
v -2912 -2624 0
v -2944 -2624 0
v -2944 -2592 0
v -2912 -2592 0
v -2880 -2624 0
v -2912 -2624 0
v -2912 -2592 0
v -2880 -2592 0
v -3168 -2592 0
v -3200 -2592 0
v -3200 -2560 0
v -3168 -2560 0
v -3136 -2592 0
v -3168 -2592 0
v -3168 -2560 0
v -3136 -2560 0
v -3104 -2592 0
v -3136 -2592 0
v -3136 -2560 0
v -3104 -2560 0
v -3072 -2592 0
v -3104 -2592 0
v -3104 -2560 0
v -3072 -2560 0
v -3040 -2592 0
v -3072 -2592 0
v -3072 -2560 0
v -3040 -2560 0
v -3008 -2592 0
v -3040 -2592 0
v -3040 -2560 0
v -3008 -2560 0
v -2944 -2592 0
v -2976 -2592 0
v -2976 -2560 0
v -2944 -2560 0
v -2912 -2592 0
v -2944 -2592 0
v -2944 -2560 0
v -2912 -2560 0
v -2880 -2592 0
v -2912 -2592 0
v -2912 -2560 0
v -2880 -2560 0
v -3168 -2560 0
v -3200 -2560 0
v -3200 -2528 0
v -3168 -2528 0
v -3136 -2560 0
v -3168 -2560 0
v -3168 -2528 0
v -3136 -2528 0
v -3104 -2560 0
v -3136 -2560 0
v -3136 -2528 0
v -3104 -2528 0
v -3072 -2560 0
v -3104 -2560 0
v -3104 -2528 0
v -3072 -2528 0
v -3040 -2560 0
v -3072 -2560 0
v -3072 -2528 0
v -3040 -2528 0
v -3008 -2560 0
v -3040 -2560 0
v -3040 -2528 0
v -3008 -2528 0
v -2944 -2560 0
v -2976 -2560 0
v -2976 -2528 0
v -2944 -2528 0
v -2912 -2560 0
v -2944 -2560 0
v -2944 -2528 0
v -2912 -2528 0
v -2880 -2560 0
v -2912 -2560 0
v -2912 -2528 0
v -2880 -2528 0

# Texture cooridinates (Count = 35)
vt 0.3125 0
vt 0.375 0
vt 0.375 0.0625
vt 0.3125 0.0625
vt 0.25 0
vt 0.25 0.0625
vt 0.375 0.125
vt 0.3125 0.125
vt 0.25 0.125
vt 0.625 0
vt 0.6875 0
vt 0.6875 0.0625
vt 0.625 0.0625
vt 0.5625 0
vt 0.5625 0.0625
vt 0.5 0
vt 0.5 0.0625
vt 0.4375 0
vt 0.4375 0.0625
vt 0.375 0.1875
vt 0.3125 0.1875
vt 0.25 0.1875
vt 0.6875 0.125
vt 0.625 0.125
vt 0.5625 0.125
vt 0.5 0.125
vt 0.4375 0.125
vt 0.375 0.25
vt 0.3125 0.25
vt 0.25 0.25
vt 0.6875 0.1875
vt 0.625 0.1875
vt 0.5625 0.1875
vt 0.5 0.1875
vt 0.4375 0.1875

# Normal
vn 0 0 -1

# Mesh description
g level1_mesh_0010

# Faces
f 1/1/1 2/2/1 3/3/1 4/4/1
f 5/5/1 6/1/1 7/4/1 8/6/1
f 9/1/1 10/2/1 11/3/1 12/4/1
f 13/5/1 14/1/1 15/4/1 16/6/1
f 17/4/1 18/3/1 19/7/1 20/8/1
f 21/6/1 22/4/1 23/8/1 24/9/1
f 25/10/1 26/11/1 27/12/1 28/13/1
f 29/14/1 30/10/1 31/13/1 32/15/1
f 33/4/1 34/3/1 35/7/1 36/8/1
f 37/6/1 38/4/1 39/8/1 40/9/1
f 41/16/1 42/14/1 43/15/1 44/17/1
f 45/18/1 46/16/1 47/17/1 48/19/1
f 49/2/1 50/18/1 51/19/1 52/3/1
f 53/8/1 54/7/1 55/20/1 56/21/1
f 57/9/1 58/8/1 59/21/1 60/22/1
f 61/13/1 62/12/1 63/23/1 64/24/1
f 65/15/1 66/13/1 67/24/1 68/25/1
f 69/8/1 70/7/1 71/20/1 72/21/1
f 73/9/1 74/8/1 75/21/1 76/22/1
f 77/17/1 78/15/1 79/25/1 80/26/1
f 81/19/1 82/17/1 83/26/1 84/27/1
f 85/3/1 86/19/1 87/27/1 88/7/1
f 89/21/1 90/20/1 91/28/1 92/29/1
f 93/22/1 94/21/1 95/29/1 96/30/1
f 97/24/1 98/23/1 99/31/1 100/32/1
f 101/25/1 102/24/1 103/32/1 104/33/1
f 105/21/1 106/20/1 107/28/1 108/29/1
f 109/22/1 110/21/1 111/29/1 112/30/1
f 113/26/1 114/25/1 115/33/1 116/34/1
f 117/27/1 118/26/1 119/34/1 120/35/1
f 121/7/1 122/27/1 123/35/1 124/20/1

