# Tiled2Unity generated file. Do not modify by hand.
# Wavefront file for 'level1_mesh_0013.obj'

# Vertices (Count = 112)
v -3008 -2816 0
v -3040 -2816 0
v -3040 -2784 0
v -3008 -2784 0
v -2976 -2816 0
v -3008 -2816 0
v -3008 -2784 0
v -2976 -2784 0
v -3168 -2784 0
v -3200 -2784 0
v -3200 -2752 0
v -3168 -2752 0
v -3136 -2784 0
v -3168 -2784 0
v -3168 -2752 0
v -3136 -2752 0
v -3104 -2784 0
v -3136 -2784 0
v -3136 -2752 0
v -3104 -2752 0
v -3072 -2784 0
v -3104 -2784 0
v -3104 -2752 0
v -3072 -2752 0
v -3040 -2784 0
v -3072 -2784 0
v -3072 -2752 0
v -3040 -2752 0
v -3008 -2784 0
v -3040 -2784 0
v -3040 -2752 0
v -3008 -2752 0
v -2976 -2784 0
v -3008 -2784 0
v -3008 -2752 0
v -2976 -2752 0
v -3168 -2752 0
v -3200 -2752 0
v -3200 -2720 0
v -3168 -2720 0
v -3136 -2752 0
v -3168 -2752 0
v -3168 -2720 0
v -3136 -2720 0
v -3104 -2752 0
v -3136 -2752 0
v -3136 -2720 0
v -3104 -2720 0
v -3072 -2752 0
v -3104 -2752 0
v -3104 -2720 0
v -3072 -2720 0
v -3040 -2752 0
v -3072 -2752 0
v -3072 -2720 0
v -3040 -2720 0
v -3008 -2752 0
v -3040 -2752 0
v -3040 -2720 0
v -3008 -2720 0
v -2976 -2752 0
v -3008 -2752 0
v -3008 -2720 0
v -2976 -2720 0
v -3168 -2720 0
v -3200 -2720 0
v -3200 -2688 0
v -3168 -2688 0
v -3136 -2720 0
v -3168 -2720 0
v -3168 -2688 0
v -3136 -2688 0
v -3104 -2720 0
v -3136 -2720 0
v -3136 -2688 0
v -3104 -2688 0
v -3072 -2720 0
v -3104 -2720 0
v -3104 -2688 0
v -3072 -2688 0
v -3040 -2720 0
v -3072 -2720 0
v -3072 -2688 0
v -3040 -2688 0
v -3008 -2720 0
v -3040 -2720 0
v -3040 -2688 0
v -3008 -2688 0
v -2976 -2720 0
v -3008 -2720 0
v -3008 -2688 0
v -2976 -2688 0
v -3168 -2688 0
v -3200 -2688 0
v -3200 -2656 0
v -3168 -2656 0
v -3136 -2688 0
v -3168 -2688 0
v -3168 -2656 0
v -3136 -2656 0
v -3104 -2688 0
v -3136 -2688 0
v -3136 -2656 0
v -3104 -2656 0
v -3072 -2688 0
v -3104 -2688 0
v -3104 -2656 0
v -3072 -2656 0
v -3040 -2688 0
v -3072 -2688 0
v -3072 -2656 0
v -3040 -2656 0

# Texture cooridinates (Count = 31)
vt 0.3125 0.25
vt 0.375 0.25
vt 0.375 0.3125
vt 0.3125 0.3125
vt 0.25 0.25
vt 0.25 0.3125
vt 0.5 0.1875
vt 0.5625 0.1875
vt 0.5625 0.25
vt 0.5 0.25
vt 0.4375 0.1875
vt 0.4375 0.25
vt 0.375 0.1875
vt 0.375 0.375
vt 0.3125 0.375
vt 0.25 0.375
vt 0.5625 0.3125
vt 0.5 0.3125
vt 0.4375 0.3125
vt 0.375 0.4375
vt 0.3125 0.4375
vt 0.25 0.4375
vt 0.5625 0.375
vt 0.5 0.375
vt 0.4375 0.375
vt 0.375 0.5
vt 0.3125 0.5
vt 0.25 0.5
vt 0.5625 0.4375
vt 0.5 0.4375
vt 0.4375 0.4375

# Normal
vn 0 0 -1

# Mesh description
g level1_mesh_0013

# Faces
f 1/1/1 2/2/1 3/3/1 4/4/1
f 5/5/1 6/1/1 7/4/1 8/6/1
f 9/1/1 10/2/1 11/3/1 12/4/1
f 13/5/1 14/1/1 15/4/1 16/6/1
f 17/7/1 18/8/1 19/9/1 20/10/1
f 21/11/1 22/7/1 23/10/1 24/12/1
f 25/13/1 26/11/1 27/12/1 28/2/1
f 29/4/1 30/3/1 31/14/1 32/15/1
f 33/6/1 34/4/1 35/15/1 36/16/1
f 37/4/1 38/3/1 39/14/1 40/15/1
f 41/6/1 42/4/1 43/15/1 44/16/1
f 45/10/1 46/9/1 47/17/1 48/18/1
f 49/12/1 50/10/1 51/18/1 52/19/1
f 53/2/1 54/12/1 55/19/1 56/3/1
f 57/15/1 58/14/1 59/20/1 60/21/1
f 61/16/1 62/15/1 63/21/1 64/22/1
f 65/15/1 66/14/1 67/20/1 68/21/1
f 69/16/1 70/15/1 71/21/1 72/22/1
f 73/18/1 74/17/1 75/23/1 76/24/1
f 77/19/1 78/18/1 79/24/1 80/25/1
f 81/3/1 82/19/1 83/25/1 84/14/1
f 85/21/1 86/20/1 87/26/1 88/27/1
f 89/22/1 90/21/1 91/27/1 92/28/1
f 93/21/1 94/20/1 95/26/1 96/27/1
f 97/22/1 98/21/1 99/27/1 100/28/1
f 101/24/1 102/23/1 103/29/1 104/30/1
f 105/25/1 106/24/1 107/30/1 108/31/1
f 109/14/1 110/25/1 111/31/1 112/20/1

