# Tiled2Unity generated file. Do not modify by hand.
# Wavefront file for 'level1_mesh_0008.obj'

# Vertices (Count = 176)
v -3168 -2528 0
v -3200 -2528 0
v -3200 -2496 0
v -3168 -2496 0
v -3136 -2528 0
v -3168 -2528 0
v -3168 -2496 0
v -3136 -2496 0
v -3104 -2528 0
v -3136 -2528 0
v -3136 -2496 0
v -3104 -2496 0
v -3072 -2528 0
v -3104 -2528 0
v -3104 -2496 0
v -3072 -2496 0
v -3040 -2528 0
v -3072 -2528 0
v -3072 -2496 0
v -3040 -2496 0
v -3008 -2528 0
v -3040 -2528 0
v -3040 -2496 0
v -3008 -2496 0
v -2976 -2528 0
v -3008 -2528 0
v -3008 -2496 0
v -2976 -2496 0
v -2944 -2528 0
v -2976 -2528 0
v -2976 -2496 0
v -2944 -2496 0
v -2912 -2528 0
v -2944 -2528 0
v -2944 -2496 0
v -2912 -2496 0
v -3168 -2496 0
v -3200 -2496 0
v -3200 -2464 0
v -3168 -2464 0
v -3136 -2496 0
v -3168 -2496 0
v -3168 -2464 0
v -3136 -2464 0
v -3104 -2496 0
v -3136 -2496 0
v -3136 -2464 0
v -3104 -2464 0
v -3072 -2496 0
v -3104 -2496 0
v -3104 -2464 0
v -3072 -2464 0
v -3040 -2496 0
v -3072 -2496 0
v -3072 -2464 0
v -3040 -2464 0
v -3008 -2496 0
v -3040 -2496 0
v -3040 -2464 0
v -3008 -2464 0
v -2976 -2496 0
v -3008 -2496 0
v -3008 -2464 0
v -2976 -2464 0
v -2944 -2496 0
v -2976 -2496 0
v -2976 -2464 0
v -2944 -2464 0
v -2912 -2496 0
v -2944 -2496 0
v -2944 -2464 0
v -2912 -2464 0
v -2880 -2496 0
v -2912 -2496 0
v -2912 -2464 0
v -2880 -2464 0
v -2848 -2496 0
v -2880 -2496 0
v -2880 -2464 0
v -2848 -2464 0
v -3168 -2464 0
v -3200 -2464 0
v -3200 -2432 0
v -3168 -2432 0
v -3136 -2464 0
v -3168 -2464 0
v -3168 -2432 0
v -3136 -2432 0
v -3104 -2464 0
v -3136 -2464 0
v -3136 -2432 0
v -3104 -2432 0
v -3072 -2464 0
v -3104 -2464 0
v -3104 -2432 0
v -3072 -2432 0
v -3040 -2464 0
v -3072 -2464 0
v -3072 -2432 0
v -3040 -2432 0
v -3008 -2464 0
v -3040 -2464 0
v -3040 -2432 0
v -3008 -2432 0
v -2976 -2464 0
v -3008 -2464 0
v -3008 -2432 0
v -2976 -2432 0
v -2944 -2464 0
v -2976 -2464 0
v -2976 -2432 0
v -2944 -2432 0
v -2912 -2464 0
v -2944 -2464 0
v -2944 -2432 0
v -2912 -2432 0
v -2880 -2464 0
v -2912 -2464 0
v -2912 -2432 0
v -2880 -2432 0
v -2848 -2464 0
v -2880 -2464 0
v -2880 -2432 0
v -2848 -2432 0
v -3168 -2432 0
v -3200 -2432 0
v -3200 -2400 0
v -3168 -2400 0
v -3136 -2432 0
v -3168 -2432 0
v -3168 -2400 0
v -3136 -2400 0
v -3104 -2432 0
v -3136 -2432 0
v -3136 -2400 0
v -3104 -2400 0
v -3072 -2432 0
v -3104 -2432 0
v -3104 -2400 0
v -3072 -2400 0
v -3040 -2432 0
v -3072 -2432 0
v -3072 -2400 0
v -3040 -2400 0
v -3008 -2432 0
v -3040 -2432 0
v -3040 -2400 0
v -3008 -2400 0
v -2976 -2432 0
v -3008 -2432 0
v -3008 -2400 0
v -2976 -2400 0
v -2944 -2432 0
v -2976 -2432 0
v -2976 -2400 0
v -2944 -2400 0
v -2912 -2432 0
v -2944 -2432 0
v -2944 -2400 0
v -2912 -2400 0
v -2880 -2432 0
v -2912 -2432 0
v -2912 -2400 0
v -2880 -2400 0
v -2848 -2432 0
v -2880 -2432 0
v -2880 -2400 0
v -2848 -2400 0
v -2880 -2400 0
v -2912 -2400 0
v -2912 -2368 0
v -2880 -2368 0
v -2848 -2400 0
v -2880 -2400 0
v -2880 -2368 0
v -2848 -2368 0

# Texture cooridinates (Count = 42)
vt 0.3125 0
vt 0.375 0
vt 0.375 0.0625
vt 0.3125 0.0625
vt 0.25 0
vt 0.25 0.0625
vt 0.3125 0.25
vt 0.375 0.25
vt 0.375 0.3125
vt 0.3125 0.3125
vt 0.25 0.25
vt 0.25 0.3125
vt 0.5 0.1875
vt 0.5625 0.1875
vt 0.5625 0.25
vt 0.5 0.25
vt 0.4375 0.1875
vt 0.4375 0.25
vt 0.375 0.1875
vt 0.375 0.125
vt 0.3125 0.125
vt 0.25 0.125
vt 0.375 0.375
vt 0.3125 0.375
vt 0.25 0.375
vt 0.5625 0.3125
vt 0.5 0.3125
vt 0.4375 0.3125
vt 0.3125 0.1875
vt 0.25 0.1875
vt 0.375 0.4375
vt 0.3125 0.4375
vt 0.25 0.4375
vt 0.5625 0.375
vt 0.5 0.375
vt 0.4375 0.375
vt 0.375 0.5
vt 0.3125 0.5
vt 0.25 0.5
vt 0.5625 0.4375
vt 0.5 0.4375
vt 0.4375 0.4375

# Normal
vn 0 0 -1

# Mesh description
g level1_mesh_0008

# Faces
f 1/1/1 2/2/1 3/3/1 4/4/1
f 5/5/1 6/1/1 7/4/1 8/6/1
f 9/7/1 10/8/1 11/9/1 12/10/1
f 13/11/1 14/7/1 15/10/1 16/12/1
f 17/1/1 18/2/1 19/3/1 20/4/1
f 21/5/1 22/1/1 23/4/1 24/6/1
f 25/13/1 26/14/1 27/15/1 28/16/1
f 29/17/1 30/13/1 31/16/1 32/18/1
f 33/19/1 34/17/1 35/18/1 36/8/1
f 37/4/1 38/3/1 39/20/1 40/21/1
f 41/6/1 42/4/1 43/21/1 44/22/1
f 45/10/1 46/9/1 47/23/1 48/24/1
f 49/12/1 50/10/1 51/24/1 52/25/1
f 53/4/1 54/3/1 55/20/1 56/21/1
f 57/6/1 58/4/1 59/21/1 60/22/1
f 61/16/1 62/15/1 63/26/1 64/27/1
f 65/18/1 66/16/1 67/27/1 68/28/1
f 69/8/1 70/18/1 71/28/1 72/9/1
f 73/7/1 74/8/1 75/9/1 76/10/1
f 77/11/1 78/7/1 79/10/1 80/12/1
f 81/21/1 82/20/1 83/19/1 84/29/1
f 85/22/1 86/21/1 87/29/1 88/30/1
f 89/24/1 90/23/1 91/31/1 92/32/1
f 93/25/1 94/24/1 95/32/1 96/33/1
f 97/21/1 98/20/1 99/19/1 100/29/1
f 101/22/1 102/21/1 103/29/1 104/30/1
f 105/27/1 106/26/1 107/34/1 108/35/1
f 109/28/1 110/27/1 111/35/1 112/36/1
f 113/9/1 114/28/1 115/36/1 116/23/1
f 117/10/1 118/9/1 119/23/1 120/24/1
f 121/12/1 122/10/1 123/24/1 124/25/1
f 125/29/1 126/19/1 127/8/1 128/7/1
f 129/30/1 130/29/1 131/7/1 132/11/1
f 133/32/1 134/31/1 135/37/1 136/38/1
f 137/33/1 138/32/1 139/38/1 140/39/1
f 141/29/1 142/19/1 143/8/1 144/7/1
f 145/30/1 146/29/1 147/7/1 148/11/1
f 149/35/1 150/34/1 151/40/1 152/41/1
f 153/36/1 154/35/1 155/41/1 156/42/1
f 157/23/1 158/36/1 159/42/1 160/31/1
f 161/24/1 162/23/1 163/31/1 164/32/1
f 165/25/1 166/24/1 167/32/1 168/33/1
f 169/32/1 170/31/1 171/37/1 172/38/1
f 173/33/1 174/32/1 175/38/1 176/39/1

