# Tiled2Unity generated file. Do not modify by hand.
# Wavefront file for 'level1_mesh_0012.obj'

# Vertices (Count = 124)
v -3104 -2752 0
v -3136 -2752 0
v -3136 -2720 0
v -3104 -2720 0
v -3072 -2752 0
v -3104 -2752 0
v -3104 -2720 0
v -3072 -2720 0
v -3008 -2752 0
v -3040 -2752 0
v -3040 -2720 0
v -3008 -2720 0
v -2976 -2752 0
v -3008 -2752 0
v -3008 -2720 0
v -2976 -2720 0
v -2944 -2752 0
v -2976 -2752 0
v -2976 -2720 0
v -2944 -2720 0
v -3168 -2720 0
v -3200 -2720 0
v -3200 -2688 0
v -3168 -2688 0
v -3136 -2720 0
v -3168 -2720 0
v -3168 -2688 0
v -3136 -2688 0
v -3104 -2720 0
v -3136 -2720 0
v -3136 -2688 0
v -3104 -2688 0
v -3072 -2720 0
v -3104 -2720 0
v -3104 -2688 0
v -3072 -2688 0
v -3008 -2720 0
v -3040 -2720 0
v -3040 -2688 0
v -3008 -2688 0
v -2976 -2720 0
v -3008 -2720 0
v -3008 -2688 0
v -2976 -2688 0
v -2944 -2720 0
v -2976 -2720 0
v -2976 -2688 0
v -2944 -2688 0
v -3168 -2688 0
v -3200 -2688 0
v -3200 -2656 0
v -3168 -2656 0
v -3136 -2688 0
v -3168 -2688 0
v -3168 -2656 0
v -3136 -2656 0
v -3104 -2688 0
v -3136 -2688 0
v -3136 -2656 0
v -3104 -2656 0
v -3072 -2688 0
v -3104 -2688 0
v -3104 -2656 0
v -3072 -2656 0
v -3008 -2688 0
v -3040 -2688 0
v -3040 -2656 0
v -3008 -2656 0
v -2976 -2688 0
v -3008 -2688 0
v -3008 -2656 0
v -2976 -2656 0
v -2944 -2688 0
v -2976 -2688 0
v -2976 -2656 0
v -2944 -2656 0
v -2880 -2688 0
v -2912 -2688 0
v -2912 -2656 0
v -2880 -2656 0
v -2848 -2688 0
v -2880 -2688 0
v -2880 -2656 0
v -2848 -2656 0
v -3168 -2656 0
v -3200 -2656 0
v -3200 -2624 0
v -3168 -2624 0
v -3136 -2656 0
v -3168 -2656 0
v -3168 -2624 0
v -3136 -2624 0
v -3104 -2656 0
v -3136 -2656 0
v -3136 -2624 0
v -3104 -2624 0
v -3072 -2656 0
v -3104 -2656 0
v -3104 -2624 0
v -3072 -2624 0
v -2880 -2656 0
v -2912 -2656 0
v -2912 -2624 0
v -2880 -2624 0
v -2848 -2656 0
v -2880 -2656 0
v -2880 -2624 0
v -2848 -2624 0
v -3168 -2624 0
v -3200 -2624 0
v -3200 -2592 0
v -3168 -2592 0
v -3136 -2624 0
v -3168 -2624 0
v -3168 -2592 0
v -3136 -2592 0
v -2880 -2624 0
v -2912 -2624 0
v -2912 -2592 0
v -2880 -2592 0
v -2848 -2624 0
v -2880 -2624 0
v -2880 -2592 0
v -2848 -2592 0

# Texture cooridinates (Count = 47)
vt 0.3125 0.25
vt 0.375 0.25
vt 0.375 0.3125
vt 0.3125 0.3125
vt 0.25 0.25
vt 0.25 0.3125
vt 0.5 0
vt 0.5625 0
vt 0.5625 0.0625
vt 0.5 0.0625
vt 0.4375 0
vt 0.4375 0.0625
vt 0.375 0
vt 0.375 0.0625
vt 0.3125 0
vt 0.3125 0.0625
vt 0.25 0
vt 0.25 0.0625
vt 0.375 0.375
vt 0.3125 0.375
vt 0.25 0.375
vt 0.5625 0.125
vt 0.5 0.125
vt 0.4375 0.125
vt 0.375 0.125
vt 0.3125 0.125
vt 0.25 0.125
vt 0.375 0.4375
vt 0.3125 0.4375
vt 0.25 0.4375
vt 0.5625 0.1875
vt 0.5 0.1875
vt 0.4375 0.1875
vt 0.375 0.1875
vt 0.625 0
vt 0.6875 0
vt 0.6875 0.0625
vt 0.625 0.0625
vt 0.3125 0.1875
vt 0.25 0.1875
vt 0.375 0.5
vt 0.3125 0.5
vt 0.25 0.5
vt 0.6875 0.125
vt 0.625 0.125
vt 0.6875 0.1875
vt 0.625 0.1875

# Normal
vn 0 0 -1

# Mesh description
g level1_mesh_0012

# Faces
f 1/1/1 2/2/1 3/3/1 4/4/1
f 5/5/1 6/1/1 7/4/1 8/6/1
f 9/7/1 10/8/1 11/9/1 12/10/1
f 13/11/1 14/7/1 15/10/1 16/12/1
f 17/13/1 18/11/1 19/12/1 20/14/1
f 21/15/1 22/13/1 23/14/1 24/16/1
f 25/17/1 26/15/1 27/16/1 28/18/1
f 29/4/1 30/3/1 31/19/1 32/20/1
f 33/6/1 34/4/1 35/20/1 36/21/1
f 37/10/1 38/9/1 39/22/1 40/23/1
f 41/12/1 42/10/1 43/23/1 44/24/1
f 45/14/1 46/12/1 47/24/1 48/25/1
f 49/16/1 50/14/1 51/25/1 52/26/1
f 53/18/1 54/16/1 55/26/1 56/27/1
f 57/20/1 58/19/1 59/28/1 60/29/1
f 61/21/1 62/20/1 63/29/1 64/30/1
f 65/23/1 66/22/1 67/31/1 68/32/1
f 69/24/1 70/23/1 71/32/1 72/33/1
f 73/25/1 74/24/1 75/33/1 76/34/1
f 77/35/1 78/36/1 79/37/1 80/38/1
f 81/8/1 82/35/1 83/38/1 84/9/1
f 85/26/1 86/25/1 87/34/1 88/39/1
f 89/27/1 90/26/1 91/39/1 92/40/1
f 93/29/1 94/28/1 95/41/1 96/42/1
f 97/30/1 98/29/1 99/42/1 100/43/1
f 101/38/1 102/37/1 103/44/1 104/45/1
f 105/9/1 106/38/1 107/45/1 108/22/1
f 109/39/1 110/34/1 111/2/1 112/1/1
f 113/40/1 114/39/1 115/1/1 116/5/1
f 117/45/1 118/44/1 119/46/1 120/47/1
f 121/22/1 122/45/1 123/47/1 124/31/1

