# Tiled2Unity generated file. Do not modify by hand.
# Wavefront file for 'level1_mesh_0011.obj'

# Vertices (Count = 112)
v -3072 -2720 0
v -3104 -2720 0
v -3104 -2688 0
v -3072 -2688 0
v -3040 -2720 0
v -3072 -2720 0
v -3072 -2688 0
v -3040 -2688 0
v -3008 -2720 0
v -3040 -2720 0
v -3040 -2688 0
v -3008 -2688 0
v -3136 -2688 0
v -3168 -2688 0
v -3168 -2656 0
v -3136 -2656 0
v -3104 -2688 0
v -3136 -2688 0
v -3136 -2656 0
v -3104 -2656 0
v -3072 -2688 0
v -3104 -2688 0
v -3104 -2656 0
v -3072 -2656 0
v -3040 -2688 0
v -3072 -2688 0
v -3072 -2656 0
v -3040 -2656 0
v -3008 -2688 0
v -3040 -2688 0
v -3040 -2656 0
v -3008 -2656 0
v -2976 -2688 0
v -3008 -2688 0
v -3008 -2656 0
v -2976 -2656 0
v -2944 -2688 0
v -2976 -2688 0
v -2976 -2656 0
v -2944 -2656 0
v -3136 -2656 0
v -3168 -2656 0
v -3168 -2624 0
v -3136 -2624 0
v -3104 -2656 0
v -3136 -2656 0
v -3136 -2624 0
v -3104 -2624 0
v -3072 -2656 0
v -3104 -2656 0
v -3104 -2624 0
v -3072 -2624 0
v -3040 -2656 0
v -3072 -2656 0
v -3072 -2624 0
v -3040 -2624 0
v -3008 -2656 0
v -3040 -2656 0
v -3040 -2624 0
v -3008 -2624 0
v -2976 -2656 0
v -3008 -2656 0
v -3008 -2624 0
v -2976 -2624 0
v -2944 -2656 0
v -2976 -2656 0
v -2976 -2624 0
v -2944 -2624 0
v -3136 -2624 0
v -3168 -2624 0
v -3168 -2592 0
v -3136 -2592 0
v -3104 -2624 0
v -3136 -2624 0
v -3136 -2592 0
v -3104 -2592 0
v -3072 -2624 0
v -3104 -2624 0
v -3104 -2592 0
v -3072 -2592 0
v -3040 -2624 0
v -3072 -2624 0
v -3072 -2592 0
v -3040 -2592 0
v -3008 -2624 0
v -3040 -2624 0
v -3040 -2592 0
v -3008 -2592 0
v -2976 -2624 0
v -3008 -2624 0
v -3008 -2592 0
v -2976 -2592 0
v -2944 -2624 0
v -2976 -2624 0
v -2976 -2592 0
v -2944 -2592 0
v -3136 -2592 0
v -3168 -2592 0
v -3168 -2560 0
v -3136 -2560 0
v -3104 -2592 0
v -3136 -2592 0
v -3136 -2560 0
v -3104 -2560 0
v -2976 -2592 0
v -3008 -2592 0
v -3008 -2560 0
v -2976 -2560 0
v -2944 -2592 0
v -2976 -2592 0
v -2976 -2560 0
v -2944 -2560 0

# Texture cooridinates (Count = 31)
vt 0.5 0.1875
vt 0.5625 0.1875
vt 0.5625 0.25
vt 0.5 0.25
vt 0.4375 0.1875
vt 0.4375 0.25
vt 0.375 0.1875
vt 0.375 0.25
vt 0.3125 0.25
vt 0.375 0.3125
vt 0.3125 0.3125
vt 0.25 0.25
vt 0.25 0.3125
vt 0.5625 0.3125
vt 0.5 0.3125
vt 0.4375 0.3125
vt 0.375 0.375
vt 0.3125 0.375
vt 0.25 0.375
vt 0.5625 0.375
vt 0.5 0.375
vt 0.4375 0.375
vt 0.375 0.4375
vt 0.3125 0.4375
vt 0.25 0.4375
vt 0.5625 0.4375
vt 0.5 0.4375
vt 0.4375 0.4375
vt 0.375 0.5
vt 0.3125 0.5
vt 0.25 0.5

# Normal
vn 0 0 -1

# Mesh description
g level1_mesh_0011

# Faces
f 1/1/1 2/2/1 3/3/1 4/4/1
f 5/5/1 6/1/1 7/4/1 8/6/1
f 9/7/1 10/5/1 11/6/1 12/8/1
f 13/9/1 14/8/1 15/10/1 16/11/1
f 17/12/1 18/9/1 19/11/1 20/13/1
f 21/4/1 22/3/1 23/14/1 24/15/1
f 25/6/1 26/4/1 27/15/1 28/16/1
f 29/8/1 30/6/1 31/16/1 32/10/1
f 33/9/1 34/8/1 35/10/1 36/11/1
f 37/12/1 38/9/1 39/11/1 40/13/1
f 41/11/1 42/10/1 43/17/1 44/18/1
f 45/13/1 46/11/1 47/18/1 48/19/1
f 49/15/1 50/14/1 51/20/1 52/21/1
f 53/16/1 54/15/1 55/21/1 56/22/1
f 57/10/1 58/16/1 59/22/1 60/17/1
f 61/11/1 62/10/1 63/17/1 64/18/1
f 65/13/1 66/11/1 67/18/1 68/19/1
f 69/18/1 70/17/1 71/23/1 72/24/1
f 73/19/1 74/18/1 75/24/1 76/25/1
f 77/21/1 78/20/1 79/26/1 80/27/1
f 81/22/1 82/21/1 83/27/1 84/28/1
f 85/17/1 86/22/1 87/28/1 88/23/1
f 89/18/1 90/17/1 91/23/1 92/24/1
f 93/19/1 94/18/1 95/24/1 96/25/1
f 97/24/1 98/23/1 99/29/1 100/30/1
f 101/25/1 102/24/1 103/30/1 104/31/1
f 105/24/1 106/23/1 107/29/1 108/30/1
f 109/25/1 110/24/1 111/30/1 112/31/1

