# Tiled2Unity generated file. Do not modify by hand.
# Wavefront file for 'level1_mesh_0016.obj'

# Vertices (Count = 112)
v -3104 -2976 0
v -3136 -2976 0
v -3136 -2944 0
v -3104 -2944 0
v -3072 -2976 0
v -3104 -2976 0
v -3104 -2944 0
v -3072 -2944 0
v -3168 -2944 0
v -3200 -2944 0
v -3200 -2912 0
v -3168 -2912 0
v -3136 -2944 0
v -3168 -2944 0
v -3168 -2912 0
v -3136 -2912 0
v -3104 -2944 0
v -3136 -2944 0
v -3136 -2912 0
v -3104 -2912 0
v -3072 -2944 0
v -3104 -2944 0
v -3104 -2912 0
v -3072 -2912 0
v -3040 -2944 0
v -3072 -2944 0
v -3072 -2912 0
v -3040 -2912 0
v -3008 -2944 0
v -3040 -2944 0
v -3040 -2912 0
v -3008 -2912 0
v -2976 -2944 0
v -3008 -2944 0
v -3008 -2912 0
v -2976 -2912 0
v -3168 -2912 0
v -3200 -2912 0
v -3200 -2880 0
v -3168 -2880 0
v -3136 -2912 0
v -3168 -2912 0
v -3168 -2880 0
v -3136 -2880 0
v -3104 -2912 0
v -3136 -2912 0
v -3136 -2880 0
v -3104 -2880 0
v -3072 -2912 0
v -3104 -2912 0
v -3104 -2880 0
v -3072 -2880 0
v -3040 -2912 0
v -3072 -2912 0
v -3072 -2880 0
v -3040 -2880 0
v -3008 -2912 0
v -3040 -2912 0
v -3040 -2880 0
v -3008 -2880 0
v -2976 -2912 0
v -3008 -2912 0
v -3008 -2880 0
v -2976 -2880 0
v -3168 -2880 0
v -3200 -2880 0
v -3200 -2848 0
v -3168 -2848 0
v -3136 -2880 0
v -3168 -2880 0
v -3168 -2848 0
v -3136 -2848 0
v -3104 -2880 0
v -3136 -2880 0
v -3136 -2848 0
v -3104 -2848 0
v -3072 -2880 0
v -3104 -2880 0
v -3104 -2848 0
v -3072 -2848 0
v -3040 -2880 0
v -3072 -2880 0
v -3072 -2848 0
v -3040 -2848 0
v -3008 -2880 0
v -3040 -2880 0
v -3040 -2848 0
v -3008 -2848 0
v -2976 -2880 0
v -3008 -2880 0
v -3008 -2848 0
v -2976 -2848 0
v -3168 -2848 0
v -3200 -2848 0
v -3200 -2816 0
v -3168 -2816 0
v -3136 -2848 0
v -3168 -2848 0
v -3168 -2816 0
v -3136 -2816 0
v -3040 -2848 0
v -3072 -2848 0
v -3072 -2816 0
v -3040 -2816 0
v -3008 -2848 0
v -3040 -2848 0
v -3040 -2816 0
v -3008 -2816 0
v -2976 -2848 0
v -3008 -2848 0
v -3008 -2816 0
v -2976 -2816 0

# Texture cooridinates (Count = 42)
vt 0.3125 0
vt 0.375 0
vt 0.375 0.0625
vt 0.3125 0.0625
vt 0.25 0
vt 0.25 0.0625
vt 0.3125 0.25
vt 0.375 0.25
vt 0.375 0.3125
vt 0.3125 0.3125
vt 0.25 0.25
vt 0.25 0.3125
vt 0.375 0.125
vt 0.3125 0.125
vt 0.25 0.125
vt 0.5 0.1875
vt 0.5625 0.1875
vt 0.5625 0.25
vt 0.5 0.25
vt 0.4375 0.1875
vt 0.4375 0.25
vt 0.375 0.1875
vt 0.375 0.375
vt 0.3125 0.375
vt 0.25 0.375
vt 0.3125 0.1875
vt 0.25 0.1875
vt 0.5625 0.3125
vt 0.5 0.3125
vt 0.4375 0.3125
vt 0.375 0.4375
vt 0.3125 0.4375
vt 0.25 0.4375
vt 0.5625 0.375
vt 0.5 0.375
vt 0.4375 0.375
vt 0.375 0.5
vt 0.3125 0.5
vt 0.25 0.5
vt 0.5625 0.4375
vt 0.5 0.4375
vt 0.4375 0.4375

# Normal
vn 0 0 -1

# Mesh description
g level1_mesh_0016

# Faces
f 1/1/1 2/2/1 3/3/1 4/4/1
f 5/5/1 6/1/1 7/4/1 8/6/1
f 9/7/1 10/8/1 11/9/1 12/10/1
f 13/11/1 14/7/1 15/10/1 16/12/1
f 17/4/1 18/3/1 19/13/1 20/14/1
f 21/6/1 22/4/1 23/14/1 24/15/1
f 25/16/1 26/17/1 27/18/1 28/19/1
f 29/20/1 30/16/1 31/19/1 32/21/1
f 33/22/1 34/20/1 35/21/1 36/8/1
f 37/10/1 38/9/1 39/23/1 40/24/1
f 41/12/1 42/10/1 43/24/1 44/25/1
f 45/14/1 46/13/1 47/22/1 48/26/1
f 49/15/1 50/14/1 51/26/1 52/27/1
f 53/19/1 54/18/1 55/28/1 56/29/1
f 57/21/1 58/19/1 59/29/1 60/30/1
f 61/8/1 62/21/1 63/30/1 64/9/1
f 65/24/1 66/23/1 67/31/1 68/32/1
f 69/25/1 70/24/1 71/32/1 72/33/1
f 73/26/1 74/22/1 75/8/1 76/7/1
f 77/27/1 78/26/1 79/7/1 80/11/1
f 81/29/1 82/28/1 83/34/1 84/35/1
f 85/30/1 86/29/1 87/35/1 88/36/1
f 89/9/1 90/30/1 91/36/1 92/23/1
f 93/32/1 94/31/1 95/37/1 96/38/1
f 97/33/1 98/32/1 99/38/1 100/39/1
f 101/35/1 102/34/1 103/40/1 104/41/1
f 105/36/1 106/35/1 107/41/1 108/42/1
f 109/23/1 110/36/1 111/42/1 112/31/1

